<svg xmlns="http://www.w3.org/2000/svg" xmlns:xlink="http://www.w3.org/1999/xlink" width="1000" zoomAndPan="magnify" viewBox="0 0 750 749.999995" height="1000" preserveAspectRatio="xMidYMid meet" version="1.0"><defs><clipPath id="8c34a651b5"><path d="M 375 0 C 167.894531 0 0 167.894531 0 375 C 0 582.105469 167.894531 750 375 750 C 582.105469 750 750 582.105469 750 375 C 750 167.894531 582.105469 0 375 0 Z M 375 0 " clip-rule="nonzero"/></clipPath><clipPath id="4d5d66260c"><path d="M 0 0 L 750 0 L 750 750 L 0 750 Z M 0 0 " clip-rule="nonzero"/></clipPath><clipPath id="bfb24ab8f6"><path d="M 375 0 C 167.894531 0 0 167.894531 0 375 C 0 582.105469 167.894531 750 375 750 C 582.105469 750 750 582.105469 750 375 C 750 167.894531 582.105469 0 375 0 Z M 375 0 " clip-rule="nonzero"/></clipPath><clipPath id="25257268d6"><rect x="0" width="750" y="0" height="750"/></clipPath><clipPath id="3fea2bb6c5"><path d="M 19.570312 19.667969 L 730.230469 19.667969 L 730.230469 730.332031 L 19.570312 730.332031 Z M 19.570312 19.667969 " clip-rule="nonzero"/></clipPath><clipPath id="60fa593e40"><path d="M 374.902344 19.667969 C 178.65625 19.667969 19.570312 178.757812 19.570312 375 C 19.570312 571.242188 178.65625 730.332031 374.902344 730.332031 C 571.144531 730.332031 730.230469 571.242188 730.230469 375 C 730.230469 178.757812 571.144531 19.667969 374.902344 19.667969 Z M 374.902344 19.667969 " clip-rule="nonzero"/></clipPath><clipPath id="ab6ef1c3bf"><path d="M 0.570312 0.667969 L 711.230469 0.667969 L 711.230469 711.332031 L 0.570312 711.332031 Z M 0.570312 0.667969 " clip-rule="nonzero"/></clipPath><clipPath id="cbbca78bbb"><path d="M 355.902344 0.667969 C 159.65625 0.667969 0.570312 159.757812 0.570312 356 C 0.570312 552.242188 159.65625 711.332031 355.902344 711.332031 C 552.144531 711.332031 711.230469 552.242188 711.230469 356 C 711.230469 159.757812 552.144531 0.667969 355.902344 0.667969 Z M 355.902344 0.667969 " clip-rule="nonzero"/></clipPath><clipPath id="cfebfaffab"><rect x="0" width="712" y="0" height="712"/></clipPath><clipPath id="e7efd5c169"><path d="M 318.804688 600.242188 L 431.195312 600.242188 L 431.195312 712.628906 L 318.804688 712.628906 Z M 318.804688 600.242188 " clip-rule="nonzero"/></clipPath><clipPath id="875b613935"><path d="M 375 600.242188 C 343.964844 600.242188 318.804688 625.398438 318.804688 656.433594 C 318.804688 687.46875 343.964844 712.628906 375 712.628906 C 406.035156 712.628906 431.195312 687.46875 431.195312 656.433594 C 431.195312 625.398438 406.035156 600.242188 375 600.242188 Z M 375 600.242188 " clip-rule="nonzero"/></clipPath><clipPath id="821d79e03c"><path d="M 0.804688 0.242188 L 113.195312 0.242188 L 113.195312 112.628906 L 0.804688 112.628906 Z M 0.804688 0.242188 " clip-rule="nonzero"/></clipPath><clipPath id="309a04dd20"><path d="M 57 0.242188 C 25.964844 0.242188 0.804688 25.398438 0.804688 56.433594 C 0.804688 87.46875 25.964844 112.628906 57 112.628906 C 88.035156 112.628906 113.195312 87.46875 113.195312 56.433594 C 113.195312 25.398438 88.035156 0.242188 57 0.242188 Z M 57 0.242188 " clip-rule="nonzero"/></clipPath><clipPath id="e8e1bd97b8"><rect x="0" width="114" y="0" height="113"/></clipPath><clipPath id="ee8d87cc64"><path d="M 449.058594 568.207031 L 561.503906 568.207031 L 561.503906 680.648438 L 449.058594 680.648438 Z M 449.058594 568.207031 " clip-rule="nonzero"/></clipPath><clipPath id="506a7ac267"><path d="M 505.28125 568.207031 C 474.230469 568.207031 449.058594 593.378906 449.058594 624.429688 C 449.058594 655.476562 474.230469 680.648438 505.28125 680.648438 C 536.332031 680.648438 561.503906 655.476562 561.503906 624.429688 C 561.503906 593.378906 536.332031 568.207031 505.28125 568.207031 Z M 505.28125 568.207031 " clip-rule="nonzero"/></clipPath><clipPath id="33eb80409e"><path d="M 0.0585938 0.207031 L 112.503906 0.207031 L 112.503906 112.648438 L 0.0585938 112.648438 Z M 0.0585938 0.207031 " clip-rule="nonzero"/></clipPath><clipPath id="792820d790"><path d="M 56.28125 0.207031 C 25.230469 0.207031 0.0585938 25.378906 0.0585938 56.429688 C 0.0585938 87.476562 25.230469 112.648438 56.28125 112.648438 C 87.332031 112.648438 112.503906 87.476562 112.503906 56.429688 C 112.503906 25.378906 87.332031 0.207031 56.28125 0.207031 Z M 56.28125 0.207031 " clip-rule="nonzero"/></clipPath><clipPath id="fa75cf5680"><rect x="0" width="113" y="0" height="113"/></clipPath><clipPath id="37f5044e15"><path d="M 412 564 L 511 564 L 511 637 L 412 637 Z M 412 564 " clip-rule="nonzero"/></clipPath><clipPath id="46264658a3"><path d="M 424.414062 557.53125 L 517.300781 610.894531 L 498.664062 643.332031 L 405.777344 589.972656 Z M 424.414062 557.53125 " clip-rule="nonzero"/></clipPath><clipPath id="25ca8a5af9"><path d="M 440.632812 566.851562 L 501.050781 601.558594 C 505.355469 604.03125 508.496094 608.109375 509.792969 612.898438 C 511.085938 617.6875 510.425781 622.792969 507.953125 627.097656 C 505.484375 631.398438 501.402344 634.542969 496.613281 635.835938 C 491.824219 637.132812 486.71875 636.46875 482.414062 634 L 421.996094 599.292969 C 417.695312 596.820312 414.550781 592.742188 413.257812 587.953125 C 411.960938 583.164062 412.625 578.054688 415.09375 573.753906 C 417.566406 569.453125 421.644531 566.308594 426.433594 565.011719 C 431.222656 563.71875 436.332031 564.378906 440.632812 566.851562 Z M 440.632812 566.851562 " clip-rule="nonzero"/></clipPath><clipPath id="fae22d9108"><path d="M 0 0 L 99 0 L 99 73 L 0 73 Z M 0 0 " clip-rule="nonzero"/></clipPath><clipPath id="ad1ab40cc1"><path d="M 12.414062 -6.46875 L 105.300781 46.894531 L 86.664062 79.332031 L -6.222656 25.972656 Z M 12.414062 -6.46875 " clip-rule="nonzero"/></clipPath><clipPath id="559a140e81"><path d="M 28.632812 2.851562 L 89.050781 37.558594 C 93.355469 40.03125 96.496094 44.109375 97.792969 48.898438 C 99.085938 53.6875 98.425781 58.792969 95.953125 63.097656 C 93.484375 67.398438 89.402344 70.542969 84.613281 71.835938 C 79.824219 73.132812 74.71875 72.46875 70.414062 70 L 9.996094 35.292969 C 5.695312 32.820312 2.550781 28.742188 1.257812 23.953125 C -0.0390625 19.164062 0.625 14.054688 3.09375 9.753906 C 5.566406 5.453125 9.644531 2.308594 14.433594 1.011719 C 19.222656 -0.28125 24.332031 0.378906 28.632812 2.851562 Z M 28.632812 2.851562 " clip-rule="nonzero"/></clipPath><clipPath id="882fd2dff8"><rect x="0" width="99" y="0" height="73"/></clipPath><clipPath id="829aef9ffd"><path d="M 356.210938 93.820312 L 393.769531 93.820312 L 393.769531 656.433594 L 356.210938 656.433594 Z M 356.210938 93.820312 " clip-rule="nonzero"/></clipPath><clipPath id="23419a2023"><path d="M 0.210938 0.820312 L 37.769531 0.820312 L 37.769531 563.433594 L 0.210938 563.433594 Z M 0.210938 0.820312 " clip-rule="nonzero"/></clipPath><clipPath id="befc1670b0"><rect x="0" width="38" y="0" height="564"/></clipPath><clipPath id="390aa9881d"><path d="M 318.671875 37.492188 L 431.324219 37.492188 L 431.324219 150.144531 L 318.671875 150.144531 Z M 318.671875 37.492188 " clip-rule="nonzero"/></clipPath><clipPath id="a03bee95ce"><path d="M 431.324219 93.820312 C 431.324219 62.710938 406.105469 37.492188 374.996094 37.492188 C 343.890625 37.492188 318.671875 62.710938 318.671875 93.820312 C 318.671875 124.925781 343.890625 150.144531 374.996094 150.144531 C 406.105469 150.144531 431.324219 124.925781 431.324219 93.820312 Z M 431.324219 93.820312 " clip-rule="nonzero"/></clipPath><clipPath id="0f68a8e5ef"><path d="M 0.671875 0.492188 L 113.324219 0.492188 L 113.324219 113.144531 L 0.671875 113.144531 Z M 0.671875 0.492188 " clip-rule="nonzero"/></clipPath><clipPath id="36e9570cf5"><path d="M 113.324219 56.820312 C 113.324219 25.710938 88.105469 0.492188 56.996094 0.492188 C 25.890625 0.492188 0.671875 25.710938 0.671875 56.820312 C 0.671875 87.925781 25.890625 113.144531 56.996094 113.144531 C 88.105469 113.144531 113.324219 87.925781 113.324219 56.820312 Z M 113.324219 56.820312 " clip-rule="nonzero"/></clipPath><clipPath id="0d78c6168a"><rect x="0" width="114" y="0" height="114"/></clipPath><clipPath id="d6fb1818a9"><path d="M 412.464844 420.515625 L 449.90625 420.515625 L 449.90625 601.136719 L 412.464844 601.136719 Z M 412.464844 420.515625 " clip-rule="nonzero"/></clipPath><clipPath id="bfd90ac5b0"><path d="M 449.90625 439.234375 L 449.90625 582.339844 C 449.90625 592.679688 441.523438 601.0625 431.183594 601.0625 C 420.84375 601.0625 412.464844 592.679688 412.464844 582.339844 L 412.464844 439.234375 C 412.464844 428.898438 420.84375 420.515625 431.183594 420.515625 C 441.523438 420.515625 449.90625 428.898438 449.90625 439.234375 Z M 449.90625 439.234375 " clip-rule="nonzero"/></clipPath><clipPath id="497be92c84"><path d="M 0.464844 0.515625 L 37.90625 0.515625 L 37.90625 181 L 0.464844 181 Z M 0.464844 0.515625 " clip-rule="nonzero"/></clipPath><clipPath id="be10c71e22"><path d="M 37.90625 19.234375 L 37.90625 162.339844 C 37.90625 172.679688 29.523438 181.0625 19.183594 181.0625 C 8.84375 181.0625 0.464844 172.679688 0.464844 162.339844 L 0.464844 19.234375 C 0.464844 8.898438 8.84375 0.515625 19.183594 0.515625 C 29.523438 0.515625 37.90625 8.898438 37.90625 19.234375 Z M 37.90625 19.234375 " clip-rule="nonzero"/></clipPath><clipPath id="be57546452"><rect x="0" width="38" y="0" height="182"/></clipPath><clipPath id="5c31c69237"><path d="M 503 187 L 610 187 L 610 266 L 503 266 Z M 503 187 " clip-rule="nonzero"/></clipPath><clipPath id="b5b8682faa"><path d="M 496.28125 239.558594 L 597.746094 180.230469 L 616.757812 212.738281 L 515.292969 272.070312 Z M 496.28125 239.558594 " clip-rule="nonzero"/></clipPath><clipPath id="5e088203dd"><path d="M 512.46875 230.09375 L 581.484375 189.738281 C 585.777344 187.226562 590.890625 186.527344 595.703125 187.785156 C 600.511719 189.046875 604.625 192.167969 607.136719 196.460938 L 607.214844 196.597656 C 609.726562 200.890625 610.425781 206.003906 609.167969 210.8125 C 607.90625 215.625 604.785156 219.738281 600.496094 222.246094 L 531.476562 262.605469 C 527.183594 265.113281 522.070312 265.816406 517.261719 264.554688 C 512.449219 263.296875 508.335938 260.175781 505.828125 255.882812 L 505.746094 255.746094 C 503.238281 251.453125 502.535156 246.339844 503.796875 241.527344 C 505.054688 236.71875 508.175781 232.605469 512.46875 230.09375 Z M 512.46875 230.09375 " clip-rule="nonzero"/></clipPath><clipPath id="aeb45713f5"><path d="M 0 0 L 107 0 L 107 78.921875 L 0 78.921875 Z M 0 0 " clip-rule="nonzero"/></clipPath><clipPath id="cfa095c826"><path d="M -6.71875 52.558594 L 94.746094 -6.769531 L 113.757812 25.738281 L 12.292969 85.070312 Z M -6.71875 52.558594 " clip-rule="nonzero"/></clipPath><clipPath id="b0fd820e0f"><path d="M 9.46875 43.09375 L 78.484375 2.738281 C 82.777344 0.226562 87.890625 -0.472656 92.703125 0.785156 C 97.511719 2.046875 101.625 5.167969 104.136719 9.460938 L 104.214844 9.597656 C 106.726562 13.890625 107.425781 19.003906 106.167969 23.8125 C 104.90625 28.625 101.785156 32.738281 97.496094 35.246094 L 28.476562 75.605469 C 24.183594 78.113281 19.070312 78.816406 14.261719 77.554688 C 9.449219 76.296875 5.335938 73.175781 2.828125 68.882812 L 2.746094 68.746094 C 0.238281 64.453125 -0.464844 59.339844 0.796875 54.527344 C 2.054688 49.71875 5.175781 45.605469 9.46875 43.09375 Z M 9.46875 43.09375 " clip-rule="nonzero"/></clipPath><clipPath id="42b9a3c5af"><rect x="0" width="107" y="0" height="79"/></clipPath><clipPath id="54427a9ca0"><path d="M 540.667969 146.40625 L 653.035156 146.40625 L 653.035156 258.773438 L 540.667969 258.773438 Z M 540.667969 146.40625 " clip-rule="nonzero"/></clipPath><clipPath id="8b956d6090"><path d="M 653.035156 202.589844 C 653.035156 171.5625 627.882812 146.40625 596.851562 146.40625 C 565.824219 146.40625 540.667969 171.5625 540.667969 202.589844 C 540.667969 233.621094 565.824219 258.773438 596.851562 258.773438 C 627.882812 258.773438 653.035156 233.621094 653.035156 202.589844 Z M 653.035156 202.589844 " clip-rule="nonzero"/></clipPath><clipPath id="31ef2f7a52"><path d="M 0.667969 0.40625 L 113.035156 0.40625 L 113.035156 112.773438 L 0.667969 112.773438 Z M 0.667969 0.40625 " clip-rule="nonzero"/></clipPath><clipPath id="b105ddd3b2"><path d="M 113.035156 56.589844 C 113.035156 25.5625 87.882812 0.40625 56.851562 0.40625 C 25.824219 0.40625 0.667969 25.5625 0.667969 56.589844 C 0.667969 87.621094 25.824219 112.773438 56.851562 112.773438 C 87.882812 112.773438 113.035156 87.621094 113.035156 56.589844 Z M 113.035156 56.589844 " clip-rule="nonzero"/></clipPath><clipPath id="92ef215e24"><rect x="0" width="114" y="0" height="113"/></clipPath><clipPath id="d17b42cad7"><path d="M 502.269531 229.171875 L 539.933594 229.171875 L 539.933594 405.277344 L 502.269531 405.277344 Z M 502.269531 229.171875 " clip-rule="nonzero"/></clipPath><clipPath id="f1ac2b7ccd"><path d="M 539.933594 247.921875 L 539.933594 386.449219 C 539.933594 391.421875 537.957031 396.191406 534.441406 399.707031 C 530.925781 403.222656 526.15625 405.199219 521.183594 405.199219 L 521.019531 405.199219 C 516.046875 405.199219 511.277344 403.222656 507.761719 399.707031 C 504.246094 396.191406 502.269531 391.421875 502.269531 386.449219 L 502.269531 247.921875 C 502.269531 242.949219 504.246094 238.179688 507.761719 234.664062 C 511.277344 231.148438 516.046875 229.171875 521.019531 229.171875 L 521.183594 229.171875 C 526.15625 229.171875 530.925781 231.148438 534.441406 234.664062 C 537.957031 238.179688 539.933594 242.949219 539.933594 247.921875 Z M 539.933594 247.921875 " clip-rule="nonzero"/></clipPath><clipPath id="c1a1038487"><path d="M 0.269531 0.171875 L 37.933594 0.171875 L 37.933594 176.277344 L 0.269531 176.277344 Z M 0.269531 0.171875 " clip-rule="nonzero"/></clipPath><clipPath id="042a580e15"><path d="M 37.933594 18.921875 L 37.933594 157.449219 C 37.933594 162.421875 35.957031 167.191406 32.441406 170.707031 C 28.925781 174.222656 24.15625 176.199219 19.183594 176.199219 L 19.019531 176.199219 C 14.046875 176.199219 9.277344 174.222656 5.761719 170.707031 C 2.246094 167.191406 0.269531 162.421875 0.269531 157.449219 L 0.269531 18.921875 C 0.269531 13.949219 2.246094 9.179688 5.761719 5.664062 C 9.277344 2.148438 14.046875 0.171875 19.019531 0.171875 L 19.183594 0.171875 C 24.15625 0.171875 28.925781 2.148438 32.441406 5.664062 C 35.957031 9.179688 37.933594 13.949219 37.933594 18.921875 Z M 37.933594 18.921875 " clip-rule="nonzero"/></clipPath><clipPath id="d6b2a71a7f"><rect x="0" width="38" y="0" height="177"/></clipPath><clipPath id="a4f7a31f9b"><path d="M 412 369 L 538 369 L 538 458 L 412 458 Z M 412 369 " clip-rule="nonzero"/></clipPath><clipPath id="67e6e88a11"><path d="M 406.082031 431.703125 L 525.949219 362.675781 L 544.648438 395.148438 L 424.78125 464.175781 Z M 406.082031 431.703125 " clip-rule="nonzero"/></clipPath><clipPath id="16f82b9212"><path d="M 422.316406 422.355469 L 509.609375 372.085938 C 513.914062 369.609375 519.03125 368.941406 523.828125 370.230469 C 528.625 371.523438 532.714844 374.667969 535.195312 378.972656 C 537.675781 383.28125 538.34375 388.394531 537.050781 393.191406 C 535.757812 397.992188 532.613281 402.078125 528.308594 404.558594 L 441.015625 454.828125 C 436.710938 457.304688 431.597656 457.972656 426.796875 456.683594 C 422 455.390625 417.910156 452.246094 415.433594 447.941406 C 412.953125 443.632812 412.285156 438.519531 413.574219 433.722656 C 414.867188 428.921875 418.011719 424.835938 422.316406 422.355469 Z M 422.316406 422.355469 " clip-rule="nonzero"/></clipPath><clipPath id="71eb2ad0f1"><path d="M 0.078125 0 L 126 0 L 126 89 L 0.078125 89 Z M 0.078125 0 " clip-rule="nonzero"/></clipPath><clipPath id="97393d3851"><path d="M -5.917969 62.703125 L 113.949219 -6.324219 L 132.648438 26.148438 L 12.78125 95.175781 Z M -5.917969 62.703125 " clip-rule="nonzero"/></clipPath><clipPath id="c6dbbb9062"><path d="M 10.316406 53.355469 L 97.609375 3.085938 C 101.914062 0.609375 107.03125 -0.0585938 111.828125 1.230469 C 116.625 2.523438 120.714844 5.667969 123.195312 9.972656 C 125.675781 14.28125 126.34375 19.394531 125.050781 24.191406 C 123.757812 28.992188 120.613281 33.078125 116.308594 35.558594 L 29.015625 85.828125 C 24.710938 88.304688 19.597656 88.972656 14.796875 87.683594 C 10 86.390625 5.910156 83.246094 3.433594 78.941406 C 0.953125 74.632812 0.285156 69.519531 1.574219 64.722656 C 2.867188 59.921875 6.011719 55.835938 10.316406 53.355469 Z M 10.316406 53.355469 " clip-rule="nonzero"/></clipPath><clipPath id="79a2174d2b"><rect x="0" width="126" y="0" height="89"/></clipPath><clipPath id="41e74d3665"><path d="M 300.023438 420.515625 L 337.464844 420.515625 L 337.464844 601.136719 L 300.023438 601.136719 Z M 300.023438 420.515625 " clip-rule="nonzero"/></clipPath><clipPath id="45fd886359"><path d="M 337.464844 439.234375 L 337.464844 582.324219 C 337.464844 592.664062 329.082031 601.046875 318.742188 601.046875 C 308.402344 601.046875 300.023438 592.664062 300.023438 582.324219 L 300.023438 439.234375 C 300.023438 428.894531 308.402344 420.515625 318.742188 420.515625 C 329.082031 420.515625 337.464844 428.894531 337.464844 439.234375 Z M 337.464844 439.234375 " clip-rule="nonzero"/></clipPath><clipPath id="e9e9311bda"><path d="M 0.0234375 0.515625 L 37.464844 0.515625 L 37.464844 181 L 0.0234375 181 Z M 0.0234375 0.515625 " clip-rule="nonzero"/></clipPath><clipPath id="806025b10d"><path d="M 37.464844 19.234375 L 37.464844 162.324219 C 37.464844 172.664062 29.082031 181.046875 18.742188 181.046875 C 8.402344 181.046875 0.0234375 172.664062 0.0234375 162.324219 L 0.0234375 19.234375 C 0.0234375 8.894531 8.402344 0.515625 18.742188 0.515625 C 29.082031 0.515625 37.464844 8.894531 37.464844 19.234375 Z M 37.464844 19.234375 " clip-rule="nonzero"/></clipPath><clipPath id="921223d8f6"><rect x="0" width="38" y="0" height="182"/></clipPath><clipPath id="e6bb29d302"><path d="M 239 564 L 338 564 L 338 637 L 239 637 Z M 239 564 " clip-rule="nonzero"/></clipPath><clipPath id="e59c10cad4"><path d="M 232.734375 610.882812 L 325.601562 557.484375 L 344.25 589.917969 L 251.382812 643.316406 Z M 232.734375 610.882812 " clip-rule="nonzero"/></clipPath><clipPath id="6f55056ef8"><path d="M 248.953125 601.558594 L 309.355469 566.828125 C 313.65625 564.355469 318.765625 563.691406 323.554688 564.984375 C 328.34375 566.277344 332.425781 569.417969 334.898438 573.71875 C 337.371094 578.019531 338.035156 583.128906 336.742188 587.917969 C 335.449219 592.707031 332.304688 596.789062 328.003906 599.261719 L 267.601562 633.992188 C 263.300781 636.464844 258.191406 637.125 253.402344 635.835938 C 248.613281 634.542969 244.53125 631.398438 242.058594 627.097656 C 239.585938 622.796875 238.921875 617.691406 240.214844 612.898438 C 241.507812 608.109375 244.652344 604.03125 248.953125 601.558594 Z M 248.953125 601.558594 " clip-rule="nonzero"/></clipPath><clipPath id="b7c72733cc"><path d="M 0 0 L 99 0 L 99 73 L 0 73 Z M 0 0 " clip-rule="nonzero"/></clipPath><clipPath id="dbcfc8e4cc"><path d="M -6.265625 46.882812 L 86.601562 -6.515625 L 105.25 25.917969 L 12.382812 79.316406 Z M -6.265625 46.882812 " clip-rule="nonzero"/></clipPath><clipPath id="e73c7b5bdd"><path d="M 9.953125 37.558594 L 70.355469 2.828125 C 74.65625 0.355469 79.765625 -0.308594 84.554688 0.984375 C 89.34375 2.277344 93.425781 5.417969 95.898438 9.71875 C 98.371094 14.019531 99.035156 19.128906 97.742188 23.917969 C 96.449219 28.707031 93.304688 32.789062 89.003906 35.261719 L 28.601562 69.992188 C 24.300781 72.464844 19.191406 73.125 14.402344 71.835938 C 9.613281 70.542969 5.53125 67.398438 3.058594 63.097656 C 0.585938 58.796875 -0.078125 53.691406 1.214844 48.898438 C 2.507812 44.109375 5.652344 40.03125 9.953125 37.558594 Z M 9.953125 37.558594 " clip-rule="nonzero"/></clipPath><clipPath id="d42675ccf5"><rect x="0" width="99" y="0" height="73"/></clipPath><clipPath id="a76e65529d"><path d="M 188.363281 568.207031 L 300.804688 568.207031 L 300.804688 680.648438 L 188.363281 680.648438 Z M 188.363281 568.207031 " clip-rule="nonzero"/></clipPath><clipPath id="0775a3ac5a"><path d="M 244.585938 568.207031 C 213.535156 568.207031 188.363281 593.378906 188.363281 624.429688 C 188.363281 655.476562 213.535156 680.648438 244.585938 680.648438 C 275.636719 680.648438 300.804688 655.476562 300.804688 624.429688 C 300.804688 593.378906 275.636719 568.207031 244.585938 568.207031 Z M 244.585938 568.207031 " clip-rule="nonzero"/></clipPath><clipPath id="fe1feb1a39"><path d="M 0.363281 0.207031 L 112.804688 0.207031 L 112.804688 112.648438 L 0.363281 112.648438 Z M 0.363281 0.207031 " clip-rule="nonzero"/></clipPath><clipPath id="9dec40ed72"><path d="M 56.585938 0.207031 C 25.535156 0.207031 0.363281 25.378906 0.363281 56.429688 C 0.363281 87.476562 25.535156 112.648438 56.585938 112.648438 C 87.636719 112.648438 112.804688 87.476562 112.804688 56.429688 C 112.804688 25.378906 87.636719 0.207031 56.585938 0.207031 Z M 56.585938 0.207031 " clip-rule="nonzero"/></clipPath><clipPath id="bf95989390"><rect x="0" width="113" y="0" height="113"/></clipPath><clipPath id="d74a63c6dd"><path d="M 213 369 L 338 369 L 338 458 L 213 458 Z M 213 369 " clip-rule="nonzero"/></clipPath><clipPath id="56c49ef2dd"><path d="M 225.058594 362.742188 L 344.25 432.058594 L 325.414062 464.449219 L 206.222656 395.132812 Z M 225.058594 362.742188 " clip-rule="nonzero"/></clipPath><clipPath id="2ce4da111c"><path d="M 241.257812 372.160156 L 328.023438 422.621094 C 332.316406 425.117188 335.445312 429.21875 336.714844 434.023438 C 337.988281 438.828125 337.296875 443.9375 334.800781 448.234375 C 332.300781 452.53125 328.199219 455.65625 323.394531 456.929688 C 318.59375 458.199219 313.480469 457.507812 309.183594 455.011719 L 222.417969 404.550781 C 218.121094 402.054688 214.996094 397.949219 213.722656 393.148438 C 212.453125 388.34375 213.144531 383.230469 215.640625 378.9375 C 218.140625 374.640625 222.242188 371.511719 227.042969 370.242188 C 231.847656 368.972656 236.960938 369.660156 241.257812 372.160156 Z M 241.257812 372.160156 " clip-rule="nonzero"/></clipPath><clipPath id="398fe6044d"><path d="M 0 0 L 125 0 L 125 89 L 0 89 Z M 0 0 " clip-rule="nonzero"/></clipPath><clipPath id="855bf4fd1c"><path d="M 12.058594 -6.257812 L 131.25 63.058594 L 112.414062 95.449219 L -6.777344 26.132812 Z M 12.058594 -6.257812 " clip-rule="nonzero"/></clipPath><clipPath id="34751196be"><path d="M 28.257812 3.160156 L 115.023438 53.621094 C 119.316406 56.117188 122.445312 60.21875 123.714844 65.023438 C 124.988281 69.828125 124.296875 74.9375 121.800781 79.234375 C 119.300781 83.53125 115.199219 86.65625 110.394531 87.929688 C 105.59375 89.199219 100.480469 88.507812 96.183594 86.011719 L 9.417969 35.550781 C 5.121094 33.054688 1.996094 28.949219 0.722656 24.148438 C -0.546875 19.34375 0.144531 14.230469 2.640625 9.9375 C 5.140625 5.640625 9.242188 2.511719 14.042969 1.242188 C 18.847656 -0.0273438 23.960938 0.660156 28.257812 3.160156 Z M 28.257812 3.160156 " clip-rule="nonzero"/></clipPath><clipPath id="b62a958a5e"><rect x="0" width="125" y="0" height="89"/></clipPath><clipPath id="895315130d"><path d="M 209.796875 229.171875 L 247.460938 229.171875 L 247.460938 405.277344 L 209.796875 405.277344 Z M 209.796875 229.171875 " clip-rule="nonzero"/></clipPath><clipPath id="79cf988160"><path d="M 247.460938 247.921875 L 247.460938 386.449219 C 247.460938 391.421875 245.484375 396.191406 241.96875 399.707031 C 238.453125 403.222656 233.683594 405.199219 228.710938 405.199219 L 228.546875 405.199219 C 223.574219 405.199219 218.804688 403.222656 215.289062 399.707031 C 211.773438 396.191406 209.796875 391.421875 209.796875 386.449219 L 209.796875 247.921875 C 209.796875 242.949219 211.773438 238.179688 215.289062 234.664062 C 218.804688 231.148438 223.574219 229.171875 228.546875 229.171875 L 228.710938 229.171875 C 233.683594 229.171875 238.453125 231.148438 241.96875 234.664062 C 245.484375 238.179688 247.460938 242.949219 247.460938 247.921875 Z M 247.460938 247.921875 " clip-rule="nonzero"/></clipPath><clipPath id="61ce4ec244"><path d="M 0.796875 0.171875 L 38.460938 0.171875 L 38.460938 176.277344 L 0.796875 176.277344 Z M 0.796875 0.171875 " clip-rule="nonzero"/></clipPath><clipPath id="753b220aed"><path d="M 38.460938 18.921875 L 38.460938 157.449219 C 38.460938 162.421875 36.484375 167.191406 32.96875 170.707031 C 29.453125 174.222656 24.683594 176.199219 19.710938 176.199219 L 19.546875 176.199219 C 14.574219 176.199219 9.804688 174.222656 6.289062 170.707031 C 2.773438 167.191406 0.796875 162.421875 0.796875 157.449219 L 0.796875 18.921875 C 0.796875 13.949219 2.773438 9.179688 6.289062 5.664062 C 9.804688 2.148438 14.574219 0.171875 19.546875 0.171875 L 19.710938 0.171875 C 24.683594 0.171875 29.453125 2.148438 32.96875 5.664062 C 36.484375 9.179688 38.460938 13.949219 38.460938 18.921875 Z M 38.460938 18.921875 " clip-rule="nonzero"/></clipPath><clipPath id="72002d99e2"><rect x="0" width="39" y="0" height="177"/></clipPath><clipPath id="d3583c4fcc"><path d="M 139 187 L 247 187 L 247 266 L 139 266 Z M 139 187 " clip-rule="nonzero"/></clipPath><clipPath id="99e824c107"><path d="M 152.054688 180.261719 L 253.496094 239.628906 L 234.476562 272.132812 L 133.035156 212.761719 Z M 152.054688 180.261719 " clip-rule="nonzero"/></clipPath><clipPath id="14c804af42"><path d="M 168.238281 189.730469 L 237.238281 230.113281 C 241.53125 232.625 244.648438 236.738281 245.90625 241.550781 C 247.164062 246.359375 246.460938 251.476562 243.949219 255.765625 L 243.871094 255.902344 C 241.359375 260.195312 237.242188 263.3125 232.433594 264.574219 C 227.621094 265.832031 222.507812 265.128906 218.214844 262.617188 L 149.214844 222.234375 C 144.921875 219.722656 141.804688 215.605469 140.546875 210.796875 C 139.289062 205.984375 139.992188 200.871094 142.503906 196.578125 L 142.585938 196.441406 C 145.097656 192.152344 149.210938 189.03125 154.019531 187.773438 C 158.832031 186.515625 163.945312 187.21875 168.238281 189.730469 Z M 168.238281 189.730469 " clip-rule="nonzero"/></clipPath><clipPath id="9a466a1b13"><path d="M 0.199219 0 L 108 0 L 108 78.921875 L 0.199219 78.921875 Z M 0.199219 0 " clip-rule="nonzero"/></clipPath><clipPath id="d31648c1e7"><path d="M 13.054688 -6.738281 L 114.496094 52.628906 L 95.476562 85.132812 L -5.964844 25.761719 Z M 13.054688 -6.738281 " clip-rule="nonzero"/></clipPath><clipPath id="9a86a2c471"><path d="M 29.238281 2.730469 L 98.238281 43.113281 C 102.53125 45.625 105.648438 49.738281 106.90625 54.550781 C 108.164062 59.359375 107.460938 64.476562 104.949219 68.765625 L 104.871094 68.902344 C 102.359375 73.195312 98.242188 76.3125 93.433594 77.574219 C 88.621094 78.832031 83.507812 78.128906 79.214844 75.617188 L 10.214844 35.234375 C 5.921875 32.722656 2.804688 28.605469 1.546875 23.796875 C 0.289062 18.984375 0.992188 13.871094 3.503906 9.578125 L 3.585938 9.441406 C 6.097656 5.152344 10.210938 2.03125 15.019531 0.773438 C 19.832031 -0.484375 24.945312 0.21875 29.238281 2.730469 Z M 29.238281 2.730469 " clip-rule="nonzero"/></clipPath><clipPath id="8a38da6643"><rect x="0" width="108" y="0" height="79"/></clipPath><clipPath id="c3ef615111"><path d="M 96.75 146.40625 L 209.117188 146.40625 L 209.117188 258.773438 L 96.75 258.773438 Z M 96.75 146.40625 " clip-rule="nonzero"/></clipPath><clipPath id="bcae5b11ca"><path d="M 209.117188 202.589844 C 209.117188 171.5625 183.964844 146.40625 152.933594 146.40625 C 121.90625 146.40625 96.75 171.5625 96.75 202.589844 C 96.75 233.621094 121.90625 258.773438 152.933594 258.773438 C 183.964844 258.773438 209.117188 233.621094 209.117188 202.589844 Z M 209.117188 202.589844 " clip-rule="nonzero"/></clipPath><clipPath id="500e12174f"><path d="M 0.75 0.40625 L 113.117188 0.40625 L 113.117188 112.773438 L 0.75 112.773438 Z M 0.75 0.40625 " clip-rule="nonzero"/></clipPath><clipPath id="0adcf8b84f"><path d="M 113.117188 56.589844 C 113.117188 25.5625 87.964844 0.40625 56.933594 0.40625 C 25.90625 0.40625 0.75 25.5625 0.75 56.589844 C 0.75 87.621094 25.90625 112.773438 56.933594 112.773438 C 87.964844 112.773438 113.117188 87.621094 113.117188 56.589844 Z M 113.117188 56.589844 " clip-rule="nonzero"/></clipPath><clipPath id="012615aeb9"><rect x="0" width="114" y="0" height="113"/></clipPath><clipPath id="8bf96d2662"><path d="M 356.433594 637.871094 L 393.566406 637.871094 L 393.566406 675 L 356.433594 675 Z M 356.433594 637.871094 " clip-rule="nonzero"/></clipPath><clipPath id="01c0d53ff3"><path d="M 375 637.871094 C 364.746094 637.871094 356.433594 646.183594 356.433594 656.433594 C 356.433594 666.6875 364.746094 675 375 675 C 385.253906 675 393.566406 666.6875 393.566406 656.433594 C 393.566406 646.183594 385.253906 637.871094 375 637.871094 Z M 375 637.871094 " clip-rule="nonzero"/></clipPath><clipPath id="984797bcb3"><path d="M 0.433594 0.871094 L 37.566406 0.871094 L 37.566406 38 L 0.433594 38 Z M 0.433594 0.871094 " clip-rule="nonzero"/></clipPath><clipPath id="0679a03e56"><path d="M 19 0.871094 C 8.746094 0.871094 0.433594 9.183594 0.433594 19.433594 C 0.433594 29.6875 8.746094 38 19 38 C 29.253906 38 37.566406 29.6875 37.566406 19.433594 C 37.566406 9.183594 29.253906 0.871094 19 0.871094 Z M 19 0.871094 " clip-rule="nonzero"/></clipPath><clipPath id="677c9d1c6c"><rect x="0" width="38" y="0" height="38"/></clipPath><clipPath id="aee5a3e2d7"><path d="M 486.390625 605.539062 L 524.167969 605.539062 L 524.167969 643.316406 L 486.390625 643.316406 Z M 486.390625 605.539062 " clip-rule="nonzero"/></clipPath><clipPath id="ba54334aa3"><path d="M 505.28125 605.539062 C 494.847656 605.539062 486.390625 613.996094 486.390625 624.429688 C 486.390625 634.859375 494.847656 643.316406 505.28125 643.316406 C 515.714844 643.316406 524.167969 634.859375 524.167969 624.429688 C 524.167969 613.996094 515.714844 605.539062 505.28125 605.539062 Z M 505.28125 605.539062 " clip-rule="nonzero"/></clipPath><clipPath id="8175accd7b"><path d="M 0.390625 0.539062 L 38.167969 0.539062 L 38.167969 38.316406 L 0.390625 38.316406 Z M 0.390625 0.539062 " clip-rule="nonzero"/></clipPath><clipPath id="fd8ced964c"><path d="M 19.28125 0.539062 C 8.847656 0.539062 0.390625 8.996094 0.390625 19.429688 C 0.390625 29.859375 8.847656 38.316406 19.28125 38.316406 C 29.714844 38.316406 38.167969 29.859375 38.167969 19.429688 C 38.167969 8.996094 29.714844 0.539062 19.28125 0.539062 Z M 19.28125 0.539062 " clip-rule="nonzero"/></clipPath><clipPath id="9b63de19b4"><rect x="0" width="39" y="0" height="39"/></clipPath><clipPath id="ff62aeae81"><path d="M 577.941406 183.675781 L 615.777344 183.675781 L 615.777344 221.507812 L 577.941406 221.507812 Z M 577.941406 183.675781 " clip-rule="nonzero"/></clipPath><clipPath id="40fccacb3f"><path d="M 596.859375 183.675781 C 586.414062 183.675781 577.941406 192.144531 577.941406 202.589844 C 577.941406 213.039062 586.414062 221.507812 596.859375 221.507812 C 607.308594 221.507812 615.777344 213.039062 615.777344 202.589844 C 615.777344 192.144531 607.308594 183.675781 596.859375 183.675781 Z M 596.859375 183.675781 " clip-rule="nonzero"/></clipPath><clipPath id="cace67524b"><path d="M 0.941406 0.675781 L 38.777344 0.675781 L 38.777344 38.507812 L 0.941406 38.507812 Z M 0.941406 0.675781 " clip-rule="nonzero"/></clipPath><clipPath id="a3580326b6"><path d="M 19.859375 0.675781 C 9.414062 0.675781 0.941406 9.144531 0.941406 19.589844 C 0.941406 30.039062 9.414062 38.507812 19.859375 38.507812 C 30.308594 38.507812 38.777344 30.039062 38.777344 19.589844 C 38.777344 9.144531 30.308594 0.675781 19.859375 0.675781 Z M 19.859375 0.675781 " clip-rule="nonzero"/></clipPath><clipPath id="e3601b1823"><rect x="0" width="39" y="0" height="39"/></clipPath><clipPath id="ca56f85981"><path d="M 356.179688 75 L 393.820312 75 L 393.820312 112.636719 L 356.179688 112.636719 Z M 356.179688 75 " clip-rule="nonzero"/></clipPath><clipPath id="4c148c5c78"><path d="M 375 75 C 364.605469 75 356.179688 83.425781 356.179688 93.820312 C 356.179688 104.210938 364.605469 112.636719 375 112.636719 C 385.394531 112.636719 393.820312 104.210938 393.820312 93.820312 C 393.820312 83.425781 385.394531 75 375 75 Z M 375 75 " clip-rule="nonzero"/></clipPath><clipPath id="19dca67e44"><path d="M 0.179688 0 L 37.820312 0 L 37.820312 37.636719 L 0.179688 37.636719 Z M 0.179688 0 " clip-rule="nonzero"/></clipPath><clipPath id="f84bf0c07d"><path d="M 19 0 C 8.605469 0 0.179688 8.425781 0.179688 18.820312 C 0.179688 29.210938 8.605469 37.636719 19 37.636719 C 29.394531 37.636719 37.820312 29.210938 37.820312 18.820312 C 37.820312 8.425781 29.394531 0 19 0 Z M 19 0 " clip-rule="nonzero"/></clipPath><clipPath id="7c285e5a37"><rect x="0" width="38" y="0" height="38"/></clipPath><clipPath id="fd242f3004"><path d="M 225.695312 605.539062 L 263.472656 605.539062 L 263.472656 643.316406 L 225.695312 643.316406 Z M 225.695312 605.539062 " clip-rule="nonzero"/></clipPath><clipPath id="16238422e1"><path d="M 244.585938 605.539062 C 234.152344 605.539062 225.695312 613.996094 225.695312 624.429688 C 225.695312 634.859375 234.152344 643.316406 244.585938 643.316406 C 255.015625 643.316406 263.472656 634.859375 263.472656 624.429688 C 263.472656 613.996094 255.015625 605.539062 244.585938 605.539062 Z M 244.585938 605.539062 " clip-rule="nonzero"/></clipPath><clipPath id="651f2df270"><path d="M 0.695312 0.539062 L 38.472656 0.539062 L 38.472656 38.316406 L 0.695312 38.316406 Z M 0.695312 0.539062 " clip-rule="nonzero"/></clipPath><clipPath id="f9543e1289"><path d="M 19.585938 0.539062 C 9.152344 0.539062 0.695312 8.996094 0.695312 19.429688 C 0.695312 29.859375 9.152344 38.316406 19.585938 38.316406 C 30.015625 38.316406 38.472656 29.859375 38.472656 19.429688 C 38.472656 8.996094 30.015625 0.539062 19.585938 0.539062 Z M 19.585938 0.539062 " clip-rule="nonzero"/></clipPath><clipPath id="cf74ecb868"><rect x="0" width="39" y="0" height="39"/></clipPath><clipPath id="d69b2ded12"><path d="M 134.023438 183.675781 L 171.859375 183.675781 L 171.859375 221.507812 L 134.023438 221.507812 Z M 134.023438 183.675781 " clip-rule="nonzero"/></clipPath><clipPath id="e2c032ae64"><path d="M 152.941406 183.675781 C 142.492188 183.675781 134.023438 192.144531 134.023438 202.589844 C 134.023438 213.039062 142.492188 221.507812 152.941406 221.507812 C 163.386719 221.507812 171.859375 213.039062 171.859375 202.589844 C 171.859375 192.144531 163.386719 183.675781 152.941406 183.675781 Z M 152.941406 183.675781 " clip-rule="nonzero"/></clipPath><clipPath id="c13b6dc2c4"><path d="M 0.0234375 0.675781 L 37.859375 0.675781 L 37.859375 38.507812 L 0.0234375 38.507812 Z M 0.0234375 0.675781 " clip-rule="nonzero"/></clipPath><clipPath id="68dfe3cbd3"><path d="M 18.941406 0.675781 C 8.492188 0.675781 0.0234375 9.144531 0.0234375 19.589844 C 0.0234375 30.039062 8.492188 38.507812 18.941406 38.507812 C 29.386719 38.507812 37.859375 30.039062 37.859375 19.589844 C 37.859375 9.144531 29.386719 0.675781 18.941406 0.675781 Z M 18.941406 0.675781 " clip-rule="nonzero"/></clipPath><clipPath id="cba83800cb"><rect x="0" width="38" y="0" height="39"/></clipPath></defs><g clip-path="url(#8c34a651b5)"><g transform="matrix(1, 0, 0, 1, 0, -0.000000000000042435)"><g clip-path="url(#25257268d6)"><g clip-path="url(#4d5d66260c)"><g clip-path="url(#bfb24ab8f6)"><rect x="-165" width="1080" fill="#000000" height="1079.999992" y="-164.999999" fill-opacity="1"/></g></g></g></g></g><g clip-path="url(#3fea2bb6c5)"><g clip-path="url(#60fa593e40)"><g transform="matrix(1, 0, 0, 1, 19, 19)"><g clip-path="url(#cfebfaffab)"><g clip-path="url(#ab6ef1c3bf)"><g clip-path="url(#cbbca78bbb)"><path fill="#8b5cf6" d="M 0.570312 0.667969 L 711.230469 0.667969 L 711.230469 711.332031 L 0.570312 711.332031 Z M 0.570312 0.667969 " fill-opacity="1" fill-rule="nonzero"/></g></g></g></g></g></g><g clip-path="url(#e7efd5c169)"><g clip-path="url(#875b613935)"><g transform="matrix(1, 0, 0, 1, 318, 600)"><g clip-path="url(#e8e1bd97b8)"><g clip-path="url(#821d79e03c)"><g clip-path="url(#309a04dd20)"><path fill="#000000" d="M 0.804688 0.242188 L 113.195312 0.242188 L 113.195312 112.628906 L 0.804688 112.628906 Z M 0.804688 0.242188 " fill-opacity="1" fill-rule="nonzero"/></g></g></g></g></g></g><g clip-path="url(#ee8d87cc64)"><g clip-path="url(#506a7ac267)"><g transform="matrix(1, 0, 0, 1, 449, 568)"><g clip-path="url(#fa75cf5680)"><g clip-path="url(#33eb80409e)"><g clip-path="url(#792820d790)"><path fill="#000000" d="M 0.0585938 0.207031 L 112.503906 0.207031 L 112.503906 112.648438 L 0.0585938 112.648438 Z M 0.0585938 0.207031 " fill-opacity="1" fill-rule="nonzero"/></g></g></g></g></g></g><g clip-path="url(#37f5044e15)"><g clip-path="url(#46264658a3)"><g clip-path="url(#25ca8a5af9)"><g transform="matrix(1, 0, 0, 1, 412, 564)"><g clip-path="url(#882fd2dff8)"><g clip-path="url(#fae22d9108)"><g clip-path="url(#ad1ab40cc1)"><g clip-path="url(#559a140e81)"><path fill="#000000" d="M 12.414062 -6.46875 L 105.300781 46.894531 L 86.664062 79.332031 L -6.222656 25.972656 Z M 12.414062 -6.46875 " fill-opacity="1" fill-rule="nonzero"/></g></g></g></g></g></g></g></g><g clip-path="url(#829aef9ffd)"><g transform="matrix(1, 0, 0, 1, 356, 93)"><g clip-path="url(#befc1670b0)"><g clip-path="url(#23419a2023)"><path fill="#000000" d="M 37.769531 0.820312 L 37.769531 563.457031 L 0.210938 563.457031 L 0.210938 0.820312 Z M 37.769531 0.820312 " fill-opacity="1" fill-rule="nonzero"/></g></g></g></g><g clip-path="url(#390aa9881d)"><g clip-path="url(#a03bee95ce)"><g transform="matrix(1, 0, 0, 1, 318, 37)"><g clip-path="url(#0d78c6168a)"><g clip-path="url(#0f68a8e5ef)"><g clip-path="url(#36e9570cf5)"><path fill="#000000" d="M 113.324219 0.492188 L 113.324219 113.144531 L 0.671875 113.144531 L 0.671875 0.492188 Z M 113.324219 0.492188 " fill-opacity="1" fill-rule="nonzero"/></g></g></g></g></g></g><g clip-path="url(#d6fb1818a9)"><g clip-path="url(#bfd90ac5b0)"><g transform="matrix(1, 0, 0, 1, 412, 420)"><g clip-path="url(#be57546452)"><g clip-path="url(#497be92c84)"><g clip-path="url(#be10c71e22)"><path fill="#000000" d="M 37.90625 0.515625 L 37.90625 180.992188 L 0.464844 180.992188 L 0.464844 0.515625 Z M 37.90625 0.515625 " fill-opacity="1" fill-rule="nonzero"/></g></g></g></g></g></g><g clip-path="url(#5c31c69237)"><g clip-path="url(#b5b8682faa)"><g clip-path="url(#5e088203dd)"><g transform="matrix(1, 0, 0, 1, 503, 187)"><g clip-path="url(#42b9a3c5af)"><g clip-path="url(#aeb45713f5)"><g clip-path="url(#cfa095c826)"><g clip-path="url(#b0fd820e0f)"><path fill="#000000" d="M -6.71875 52.558594 L 94.621094 -6.695312 L 113.628906 25.8125 L 12.292969 85.070312 Z M -6.71875 52.558594 " fill-opacity="1" fill-rule="nonzero"/></g></g></g></g></g></g></g></g><g clip-path="url(#54427a9ca0)"><g clip-path="url(#8b956d6090)"><g transform="matrix(1, 0, 0, 1, 540, 146)"><g clip-path="url(#92ef215e24)"><g clip-path="url(#31ef2f7a52)"><g clip-path="url(#b105ddd3b2)"><path fill="#000000" d="M 113.035156 0.40625 L 113.035156 112.773438 L 0.667969 112.773438 L 0.667969 0.40625 Z M 113.035156 0.40625 " fill-opacity="1" fill-rule="nonzero"/></g></g></g></g></g></g><g clip-path="url(#d17b42cad7)"><g clip-path="url(#f1ac2b7ccd)"><g transform="matrix(1, 0, 0, 1, 502, 229)"><g clip-path="url(#d6b2a71a7f)"><g clip-path="url(#c1a1038487)"><g clip-path="url(#042a580e15)"><path fill="#000000" d="M 37.933594 0.171875 L 37.933594 176.128906 L 0.269531 176.128906 L 0.269531 0.171875 Z M 37.933594 0.171875 " fill-opacity="1" fill-rule="nonzero"/></g></g></g></g></g></g><g clip-path="url(#a4f7a31f9b)"><g clip-path="url(#67e6e88a11)"><g clip-path="url(#16f82b9212)"><g transform="matrix(1, 0, 0, 1, 412, 369)"><g clip-path="url(#79a2174d2b)"><g clip-path="url(#71eb2ad0f1)"><g clip-path="url(#97393d3851)"><g clip-path="url(#c6dbbb9062)"><path fill="#000000" d="M -5.917969 62.703125 L 113.824219 -6.25 L 132.523438 26.222656 L 12.78125 95.175781 Z M -5.917969 62.703125 " fill-opacity="1" fill-rule="nonzero"/></g></g></g></g></g></g></g></g><g clip-path="url(#41e74d3665)"><g clip-path="url(#45fd886359)"><g transform="matrix(1, 0, 0, 1, 300, 420)"><g clip-path="url(#921223d8f6)"><g clip-path="url(#e9e9311bda)"><g clip-path="url(#806025b10d)"><path fill="#000000" d="M 37.464844 0.515625 L 37.464844 180.992188 L 0.0234375 180.992188 L 0.0234375 0.515625 Z M 37.464844 0.515625 " fill-opacity="1" fill-rule="nonzero"/></g></g></g></g></g></g><g clip-path="url(#e6bb29d302)"><g clip-path="url(#e59c10cad4)"><g clip-path="url(#6f55056ef8)"><g transform="matrix(1, 0, 0, 1, 239, 564)"><g clip-path="url(#d42675ccf5)"><g clip-path="url(#b7c72733cc)"><g clip-path="url(#dbcfc8e4cc)"><g clip-path="url(#e73c7b5bdd)"><path fill="#000000" d="M -6.265625 46.882812 L 86.601562 -6.515625 L 105.25 25.917969 L 12.382812 79.316406 Z M -6.265625 46.882812 " fill-opacity="1" fill-rule="nonzero"/></g></g></g></g></g></g></g></g><g clip-path="url(#a76e65529d)"><g clip-path="url(#0775a3ac5a)"><g transform="matrix(1, 0, 0, 1, 188, 568)"><g clip-path="url(#bf95989390)"><g clip-path="url(#fe1feb1a39)"><g clip-path="url(#9dec40ed72)"><path fill="#000000" d="M 0.363281 0.207031 L 112.804688 0.207031 L 112.804688 112.648438 L 0.363281 112.648438 Z M 0.363281 0.207031 " fill-opacity="1" fill-rule="nonzero"/></g></g></g></g></g></g><g clip-path="url(#d74a63c6dd)"><g clip-path="url(#56c49ef2dd)"><g clip-path="url(#2ce4da111c)"><g transform="matrix(1, 0, 0, 1, 213, 369)"><g clip-path="url(#b62a958a5e)"><g clip-path="url(#398fe6044d)"><g clip-path="url(#855bf4fd1c)"><g clip-path="url(#34751196be)"><path fill="#000000" d="M 12.058594 -6.257812 L 131.25 63.058594 L 112.414062 95.449219 L -6.777344 26.132812 Z M 12.058594 -6.257812 " fill-opacity="1" fill-rule="nonzero"/></g></g></g></g></g></g></g></g><g clip-path="url(#895315130d)"><g clip-path="url(#79cf988160)"><g transform="matrix(1, 0, 0, 1, 209, 229)"><g clip-path="url(#72002d99e2)"><g clip-path="url(#61ce4ec244)"><g clip-path="url(#753b220aed)"><path fill="#000000" d="M 38.460938 0.171875 L 38.460938 176.128906 L 0.796875 176.128906 L 0.796875 0.171875 Z M 38.460938 0.171875 " fill-opacity="1" fill-rule="nonzero"/></g></g></g></g></g></g><g clip-path="url(#d3583c4fcc)"><g clip-path="url(#99e824c107)"><g clip-path="url(#14c804af42)"><g transform="matrix(1, 0, 0, 1, 139, 187)"><g clip-path="url(#8a38da6643)"><g clip-path="url(#9a466a1b13)"><g clip-path="url(#d31648c1e7)"><g clip-path="url(#9a86a2c471)"><path fill="#000000" d="M 13.054688 -6.738281 L 114.371094 52.554688 L 95.347656 85.058594 L -5.964844 25.761719 Z M 13.054688 -6.738281 " fill-opacity="1" fill-rule="nonzero"/></g></g></g></g></g></g></g></g><g clip-path="url(#c3ef615111)"><g clip-path="url(#bcae5b11ca)"><g transform="matrix(1, 0, 0, 1, 96, 146)"><g clip-path="url(#012615aeb9)"><g clip-path="url(#500e12174f)"><g clip-path="url(#0adcf8b84f)"><path fill="#000000" d="M 113.117188 0.40625 L 113.117188 112.773438 L 0.75 112.773438 L 0.75 0.40625 Z M 113.117188 0.40625 " fill-opacity="1" fill-rule="nonzero"/></g></g></g></g></g></g><g clip-path="url(#8bf96d2662)"><g clip-path="url(#01c0d53ff3)"><g transform="matrix(1, 0, 0, 1, 356, 637)"><g clip-path="url(#677c9d1c6c)"><g clip-path="url(#984797bcb3)"><g clip-path="url(#0679a03e56)"><path fill="#8b5cf6" d="M 0.433594 0.871094 L 37.566406 0.871094 L 37.566406 38 L 0.433594 38 Z M 0.433594 0.871094 " fill-opacity="1" fill-rule="nonzero"/></g></g></g></g></g></g><g clip-path="url(#aee5a3e2d7)"><g clip-path="url(#ba54334aa3)"><g transform="matrix(1, 0, 0, 1, 486, 605)"><g clip-path="url(#9b63de19b4)"><g clip-path="url(#8175accd7b)"><g clip-path="url(#fd8ced964c)"><path fill="#8b5cf6" d="M 0.390625 0.539062 L 38.167969 0.539062 L 38.167969 38.316406 L 0.390625 38.316406 Z M 0.390625 0.539062 " fill-opacity="1" fill-rule="nonzero"/></g></g></g></g></g></g><g clip-path="url(#ff62aeae81)"><g clip-path="url(#40fccacb3f)"><g transform="matrix(1, 0, 0, 1, 577, 183)"><g clip-path="url(#e3601b1823)"><g clip-path="url(#cace67524b)"><g clip-path="url(#a3580326b6)"><path fill="#8b5cf6" d="M 0.941406 0.675781 L 38.777344 0.675781 L 38.777344 38.507812 L 0.941406 38.507812 Z M 0.941406 0.675781 " fill-opacity="1" fill-rule="nonzero"/></g></g></g></g></g></g><g clip-path="url(#ca56f85981)"><g clip-path="url(#4c148c5c78)"><g transform="matrix(1, 0, 0, 1, 356, 75)"><g clip-path="url(#7c285e5a37)"><g clip-path="url(#19dca67e44)"><g clip-path="url(#f84bf0c07d)"><path fill="#8b5cf6" d="M 0.179688 0 L 37.820312 0 L 37.820312 37.636719 L 0.179688 37.636719 Z M 0.179688 0 " fill-opacity="1" fill-rule="nonzero"/></g></g></g></g></g></g><g clip-path="url(#fd242f3004)"><g clip-path="url(#16238422e1)"><g transform="matrix(1, 0, 0, 1, 225, 605)"><g clip-path="url(#cf74ecb868)"><g clip-path="url(#651f2df270)"><g clip-path="url(#f9543e1289)"><path fill="#8b5cf6" d="M 0.695312 0.539062 L 38.472656 0.539062 L 38.472656 38.316406 L 0.695312 38.316406 Z M 0.695312 0.539062 " fill-opacity="1" fill-rule="nonzero"/></g></g></g></g></g></g><g clip-path="url(#d69b2ded12)"><g clip-path="url(#e2c032ae64)"><g transform="matrix(1, 0, 0, 1, 134, 183)"><g clip-path="url(#cba83800cb)"><g clip-path="url(#c13b6dc2c4)"><g clip-path="url(#68dfe3cbd3)"><path fill="#8b5cf6" d="M 0.0234375 0.675781 L 37.859375 0.675781 L 37.859375 38.507812 L 0.0234375 38.507812 Z M 0.0234375 0.675781 " fill-opacity="1" fill-rule="nonzero"/></g></g></g></g></g></g></svg>